<?xml version="1.0" encoding="UTF-8" standalone="no"?>
<!DOCTYPE svg PUBLIC "-//W3C//DTD SVG 1.1//EN"
 "http://www.w3.org/Graphics/SVG/1.1/DTD/svg11.dtd">
<!-- Generated by graphviz version 2.43.0 (0)
 -->
<!-- Title: Tree Pages: 1 -->
<svg width="705pt" height="426pt"
 viewBox="0.00 0.00 704.50 426.38" xmlns="http://www.w3.org/2000/svg" xmlns:xlink="http://www.w3.org/1999/xlink">
<g id="graph0" class="graph" transform="scale(1 1) rotate(0) translate(4 422.38)">
<title>Tree</title>
<polygon fill="white" stroke="transparent" points="-4,4 -4,-422.38 700.5,-422.38 700.5,4 -4,4"/>
<!-- 0 -->
<g id="node1" class="node">
<title>0</title>
<path fill="#eda978" stroke="black" d="M432.5,-399C432.5,-399 280.5,-399 280.5,-399 274.5,-399 268.5,-393 268.5,-387 268.5,-387 268.5,-343 268.5,-343 268.5,-337 274.5,-331 280.5,-331 280.5,-331 432.5,-331 432.5,-331 438.5,-331 444.5,-337 444.5,-343 444.5,-343 444.5,-387 444.5,-387 444.5,-393 438.5,-399 432.5,-399"/>
<text text-anchor="start" x="294" y="-383.8" font-family="Helvetica,sans-Serif" font-size="14.00">relationship ≤ 1.5</text>
<text text-anchor="start" x="317" y="-368.8" font-family="Helvetica,sans-Serif" font-size="14.00">gini = 0.37</text>
<text text-anchor="start" x="294.5" y="-353.8" font-family="Helvetica,sans-Serif" font-size="14.00">samples = 26048</text>
<text text-anchor="start" x="276.5" y="-338.8" font-family="Helvetica,sans-Serif" font-size="14.00">value = [19762, 6286]</text>
</g>
<!-- 1 -->
<g id="node2" class="node">
<title>1</title>
<path fill="#fae8da" stroke="black" d="M334,-237C334,-237 191,-237 191,-237 185,-237 179,-231 179,-225 179,-225 179,-181 179,-181 179,-175 185,-169 191,-169 191,-169 334,-169 334,-169 340,-169 346,-175 346,-181 346,-181 346,-225 346,-225 346,-231 340,-237 334,-237"/>
<text text-anchor="start" x="202" y="-221.8" font-family="Helvetica,sans-Serif" font-size="14.00">education ≤ 12.5</text>
<text text-anchor="start" x="223" y="-206.8" font-family="Helvetica,sans-Serif" font-size="14.00">gini = 0.49</text>
<text text-anchor="start" x="200.5" y="-191.8" font-family="Helvetica,sans-Serif" font-size="14.00">samples = 10547</text>
<text text-anchor="start" x="187" y="-176.8" font-family="Helvetica,sans-Serif" font-size="14.00">value = [5809, 4738]</text>
</g>
<!-- 0&#45;&gt;1 -->
<g id="edge1" class="edge">
<title>0&#45;&gt;1</title>
<path fill="none" stroke="black" d="M337.02,-330.85C322.53,-306.18 302.64,-272.33 287.06,-245.8"/>
<polygon fill="black" stroke="black" points="290.04,-243.96 281.95,-237.11 284,-247.5 290.04,-243.96"/>
<text text-anchor="middle" x="275.66" y="-257.61" font-family="Helvetica,sans-Serif" font-size="14.00">True</text>
</g>
<!-- 2 -->
<g id="node5" class="node">
<title>2</title>
<path fill="#e88f4f" stroke="black" d="M527.5,-237C527.5,-237 375.5,-237 375.5,-237 369.5,-237 363.5,-231 363.5,-225 363.5,-225 363.5,-181 363.5,-181 363.5,-175 369.5,-169 375.5,-169 375.5,-169 527.5,-169 527.5,-169 533.5,-169 539.5,-175 539.5,-181 539.5,-181 539.5,-225 539.5,-225 539.5,-231 533.5,-237 527.5,-237"/>
<text text-anchor="start" x="375.5" y="-221.8" font-family="Helvetica,sans-Serif" font-size="14.00">capital&#45;gain ≤ 7073.5</text>
<text text-anchor="start" x="412" y="-206.8" font-family="Helvetica,sans-Serif" font-size="14.00">gini = 0.18</text>
<text text-anchor="start" x="389.5" y="-191.8" font-family="Helvetica,sans-Serif" font-size="14.00">samples = 15501</text>
<text text-anchor="start" x="371.5" y="-176.8" font-family="Helvetica,sans-Serif" font-size="14.00">value = [13953, 1548]</text>
</g>
<!-- 0&#45;&gt;2 -->
<g id="edge4" class="edge">
<title>0&#45;&gt;2</title>
<path fill="none" stroke="black" d="M376.18,-330.85C390.83,-306.18 410.93,-272.33 426.68,-245.8"/>
<polygon fill="black" stroke="black" points="429.75,-247.5 431.84,-237.11 423.73,-243.92 429.75,-247.5"/>
<text text-anchor="middle" x="438.02" y="-257.63" font-family="Helvetica,sans-Serif" font-size="14.00">False</text>
</g>
<!-- 3 -->
<g id="node3" class="node">
<title>3</title>
<path fill="#f2bf9b" stroke="black" d="M155,-67.5C155,-67.5 12,-67.5 12,-67.5 6,-67.5 0,-61.5 0,-55.5 0,-55.5 0,-26.5 0,-26.5 0,-20.5 6,-14.5 12,-14.5 12,-14.5 155,-14.5 155,-14.5 161,-14.5 167,-20.5 167,-26.5 167,-26.5 167,-55.5 167,-55.5 167,-61.5 161,-67.5 155,-67.5"/>
<text text-anchor="start" x="44" y="-52.3" font-family="Helvetica,sans-Serif" font-size="14.00">gini = 0.44</text>
<text text-anchor="start" x="26" y="-37.3" font-family="Helvetica,sans-Serif" font-size="14.00">samples = 7370</text>
<text text-anchor="start" x="8" y="-22.3" font-family="Helvetica,sans-Serif" font-size="14.00">value = [4927, 2443]</text>
</g>
<!-- 1&#45;&gt;3 -->
<g id="edge2" class="edge">
<title>1&#45;&gt;3</title>
<path fill="none" stroke="black" d="M225.41,-168.85C194.45,-141.17 150.56,-101.94 119.81,-74.46"/>
<polygon fill="black" stroke="black" points="122.08,-71.79 112.3,-67.74 117.42,-77.01 122.08,-71.79"/>
</g>
<!-- 4 -->
<g id="node4" class="node">
<title>4</title>
<path fill="#85c3ef" stroke="black" d="M330.5,-67.5C330.5,-67.5 196.5,-67.5 196.5,-67.5 190.5,-67.5 184.5,-61.5 184.5,-55.5 184.5,-55.5 184.5,-26.5 184.5,-26.5 184.5,-20.5 190.5,-14.5 196.5,-14.5 196.5,-14.5 330.5,-14.5 330.5,-14.5 336.5,-14.5 342.5,-20.5 342.5,-26.5 342.5,-26.5 342.5,-55.5 342.5,-55.5 342.5,-61.5 336.5,-67.5 330.5,-67.5"/>
<text text-anchor="start" x="228.5" y="-52.3" font-family="Helvetica,sans-Serif" font-size="14.00">gini = 0.4</text>
<text text-anchor="start" x="206" y="-37.3" font-family="Helvetica,sans-Serif" font-size="14.00">samples = 3177</text>
<text text-anchor="start" x="192.5" y="-22.3" font-family="Helvetica,sans-Serif" font-size="14.00">value = [882, 2295]</text>
</g>
<!-- 1&#45;&gt;4 -->
<g id="edge3" class="edge">
<title>1&#45;&gt;4</title>
<path fill="none" stroke="black" d="M262.71,-168.85C262.87,-142.34 263.1,-105.25 263.27,-78.01"/>
<polygon fill="black" stroke="black" points="266.78,-77.76 263.34,-67.74 259.78,-77.72 266.78,-77.76"/>
</g>
<!-- 5 -->
<g id="node6" class="node">
<title>5</title>
<path fill="#e78c4a" stroke="black" d="M526.5,-67.5C526.5,-67.5 374.5,-67.5 374.5,-67.5 368.5,-67.5 362.5,-61.5 362.5,-55.5 362.5,-55.5 362.5,-26.5 362.5,-26.5 362.5,-20.5 368.5,-14.5 374.5,-14.5 374.5,-14.5 526.5,-14.5 526.5,-14.5 532.5,-14.5 538.5,-20.5 538.5,-26.5 538.5,-26.5 538.5,-55.5 538.5,-55.5 538.5,-61.5 532.5,-67.5 526.5,-67.5"/>
<text text-anchor="start" x="411" y="-52.3" font-family="Helvetica,sans-Serif" font-size="14.00">gini = 0.15</text>
<text text-anchor="start" x="388.5" y="-37.3" font-family="Helvetica,sans-Serif" font-size="14.00">samples = 15134</text>
<text text-anchor="start" x="370.5" y="-22.3" font-family="Helvetica,sans-Serif" font-size="14.00">value = [13943, 1191]</text>
</g>
<!-- 2&#45;&gt;5 -->
<g id="edge5" class="edge">
<title>2&#45;&gt;5</title>
<path fill="none" stroke="black" d="M451.29,-168.85C451.13,-142.34 450.9,-105.25 450.73,-78.01"/>
<polygon fill="black" stroke="black" points="454.22,-77.72 450.66,-67.74 447.22,-77.76 454.22,-77.72"/>
</g>
<!-- 6 -->
<g id="node7" class="node">
<title>6</title>
<path fill="#3fa0e6" stroke="black" d="M684.5,-67.5C684.5,-67.5 568.5,-67.5 568.5,-67.5 562.5,-67.5 556.5,-61.5 556.5,-55.5 556.5,-55.5 556.5,-26.5 556.5,-26.5 556.5,-20.5 562.5,-14.5 568.5,-14.5 568.5,-14.5 684.5,-14.5 684.5,-14.5 690.5,-14.5 696.5,-20.5 696.5,-26.5 696.5,-26.5 696.5,-55.5 696.5,-55.5 696.5,-61.5 690.5,-67.5 684.5,-67.5"/>
<text text-anchor="start" x="587" y="-52.3" font-family="Helvetica,sans-Serif" font-size="14.00">gini = 0.05</text>
<text text-anchor="start" x="573.5" y="-37.3" font-family="Helvetica,sans-Serif" font-size="14.00">samples = 367</text>
<text text-anchor="start" x="564.5" y="-22.3" font-family="Helvetica,sans-Serif" font-size="14.00">value = [10, 357]</text>
</g>
<!-- 2&#45;&gt;6 -->
<g id="edge6" class="edge">
<title>2&#45;&gt;6</title>
<path fill="none" stroke="black" d="M487.76,-168.85C517.9,-141.29 560.57,-102.27 590.61,-74.81"/>
<polygon fill="black" stroke="black" points="593.33,-77.07 598.35,-67.74 588.6,-71.9 593.33,-77.07"/>
</g>
</g>
</svg>
